PathFileType	4	(X/Y/Z)	E:\3-PhD\Data\MocapData\ElaboratedData\009\pre\dynamicElaborations\RunL3\RunL3.trc
DataRate	CameraRate	NumFrames	NumMarkers	Units	OrigDataRate	DataStartFrame
200	200	4	54	mm	200	301
Frame#	Time	FHD			LBHD			RBHD			C7			T10			CLAV			LSHO			LUUPA			LMUPA			LDUPA			LLEP			LMEP			LRAD			LUL			LRFIN			RSHO			RUPA1			RMUPA			RDUPA			RLEP			RMEP			RRAD			RUL			RUFIN			RASI			USACR			LSACR			RSACR			LTHI1			LTHI2			LTHI3			LTHI4			LTIB1			LTIB2			LTIB3			LTIB4			LLMAL			LHEE			LMT1			LMT2			RTHI			RTHI2			RTHI3			RTHI4			RLFC			RTIB1			RTIB2			RTIB3			RTIB4			RLMAL			RHEE			RMT1			RMT2			RMT5		
		X1	Y1	Z1	X2	Y2	Z2	X3	Y3	Z3	X4	Y4	Z4	X5	Y5	Z5	X6	Y6	Z6	X7	Y7	Z7	X8	Y8	Z8	X9	Y9	Z9	X10	Y10	Z10	X11	Y11	Z11	X12	Y12	Z12	X13	Y13	Z13	X14	Y14	Z14	X15	Y15	Z15	X16	Y16	Z16	X17	Y17	Z17	X18	Y18	Z18	X19	Y19	Z19	X20	Y20	Z20	X21	Y21	Z21	X22	Y22	Z22	X23	Y23	Z23	X24	Y24	Z24	X25	Y25	Z25	X26	Y26	Z26	X27	Y27	Z27	X28	Y28	Z28	X29	Y29	Z29	X30	Y30	Z30	X31	Y31	Z31	X32	Y32	Z32	X33	Y33	Z33	X34	Y34	Z34	X35	Y35	Z35	X36	Y36	Z36	X37	Y37	Z37	X38	Y38	Z38	X39	Y39	Z39	X40	Y40	Z40	X41	Y41	Z41	X42	Y42	Z42	X43	Y43	Z43	X44	Y44	Z44	X45	Y45	Z45	X46	Y46	Z46	X47	Y47	Z47	X48	Y48	Z48	X49	Y49	Z49	X50	Y50	Z50	X51	Y51	Z51	X52	Y52	Z52	X53	Y53	Z53	X54	Y54	Z54	

316	1.575000	-320.912861	1416.129708	692.241044	-459.086518	1420.447005	550.131630	-468.303212	1402.928917	677.989245	-538.948173	1308.992634	605.037994	-750.521347	1022.528164	610.521654	-457.603693	1164.518826	604.327903	-467.004229	1259.503236	482.204056	-502.721319	1114.134372	354.855625	-463.388417	1087.951562	358.386755	-495.856667	1050.859478	324.643121	-489.285655	933.618396	295.257143	-507.908069	894.654320	359.243021	-299.209943	1021.888899	436.698311	-258.629094	967.788451	405.885866	-245.021882	1069.986711	416.818010	-475.895806	1242.302259	764.754478	-617.581213	1175.291329	865.387805	-630.946687	1128.772347	852.856470	-674.909040	1148.422202	890.550381	-798.411292	1098.191721	922.042362	-835.577264	1118.267089	861.430944	-828.746398	849.079913	850.026499	-880.615809	852.096220	903.121923	-804.230263	782.730509	886.066828	-614.237653	797.161651	683.801226	-787.189405	914.906062	598.772322	-788.023116	891.519855	563.563386	-790.367830	876.420919	620.825013	-605.294710	696.673605	293.810289	-550.513260	642.505036	258.253286	-505.978835	655.823821	268.894344	-560.619450	585.598412	239.743159	-497.921361	316.558707	157.311734	-564.694543	321.703069	101.108210	-532.967757	296.063289	116.217122	-563.445177	215.277762	113.875718	-670.149438	110.566628	47.172121	-760.603879	69.570898	63.901861	-542.499235	54.626376	107.129507	-534.033273	55.940412	60.571225	-550.710529	612.679727	759.775950	-489.394229	608.633593	781.395713	-468.590825	636.969344	784.086254	-434.868149	544.059468	765.041618	-345.966509	496.748719	757.568026	-351.249137	342.117018	616.282978	-448.923883	303.458791	598.058072	-405.735834	289.386251	588.181393	-398.448341	262.233100	537.530770	-492.147669	208.026852	498.203058	-546.481431	225.698916	419.734058	-343.238768	128.109914	450.536340	-360.655061	113.762793	485.506613	-424.890550	93.225306	508.557370	
317	1.580000	-297.239617	1416.758501	703.459779	-433.132255	1419.819114	559.281081	-444.446055	1403.538196	687.155303	-514.126150	1308.517976	613.597657	-725.236597	1021.719595	616.271988	-432.298105	1163.537142	615.128546	-439.043440	1258.809528	492.786073	-469.874047	1114.956027	363.552360	-430.716033	1088.675026	368.116461	-461.980504	1052.026390	332.763186	-455.099413	935.245779	301.848188	-474.559336	895.356600	365.199248	-269.504682	1025.398929	447.481518	-227.603388	972.179654	417.053195	-216.115037	1074.503674	428.901875	-455.070507	1241.815253	775.353581	-599.621638	1176.018037	872.956289	-612.849852	1129.466361	860.857008	-657.662293	1149.692333	896.974196	-781.913198	1099.319992	925.680871	-817.537175	1119.756426	864.592942	-812.881365	851.164590	851.978550	-865.889817	854.275941	904.703609	-789.300567	784.452383	887.723032	-588.627829	797.126015	687.796277	-762.068673	914.413135	604.540950	-763.047797	890.990218	569.418641	-765.346284	875.981601	626.708151	-586.240730	696.771429	297.084248	-533.136510	641.803546	260.126959	-488.244832	653.657863	270.703008	-545.052972	585.761481	240.505723	-490.819271	314.711181	155.232173	-558.822700	321.600851	100.450950	-527.296216	295.185910	114.884031	-559.750304	215.129265	112.678613	-668.947446	113.313672	47.293937	-760.061328	74.151327	64.505772	-542.019803	54.403796	106.472718	-533.868786	55.858618	59.799084	-526.126147	614.223888	766.629530	-464.914276	611.257372	788.595575	-444.613175	640.035946	791.273740	-409.063251	547.680790	772.569560	-318.903385	501.601954	765.900094	-310.267058	343.952159	628.080153	-407.619051	299.204050	607.204629	-364.026494	287.554468	599.628295	-353.283703	259.912326	547.648909	-442.799899	199.476745	508.157433	-495.725011	212.603632	427.918174	-288.360406	127.474099	466.027226	-305.844086	112.713822	500.697043	-369.348106	88.934226	522.526118	
318	1.585000	-273.592663	1418.198641	714.998732	-407.399861	1419.842726	569.047128	-420.571275	1404.841634	696.860266	-489.307868	1308.592175	622.768235	-699.675365	1021.292381	622.210818	-406.922722	1163.483115	626.463168	-411.342712	1258.736178	503.981593	-438.172648	1116.563493	372.788278	-399.175034	1090.167988	378.135302	-429.506274	1054.021493	341.416335	-422.332883	937.856491	308.826698	-442.549986	897.024162	371.587308	-240.537070	1029.038882	458.268646	-197.580683	976.586136	428.175377	-187.829311	1078.966425	440.910555	-434.392872	1242.053595	786.389444	-581.829547	1177.813372	880.847739	-594.847503	1131.203268	869.519548	-640.601751	1152.174559	903.688874	-765.430180	1101.458363	929.617011	-799.437353	1122.136229	868.054382	-795.821411	854.255709	853.784549	-849.700053	857.130029	906.130919	-772.720119	787.284090	888.974276	-563.143656	797.464910	692.211163	-736.653123	914.463130	610.295896	-737.750733	891.043380	575.215972	-740.152544	876.042040	632.494673	-566.633466	697.086476	300.926040	-515.358831	641.141733	262.826095	-470.159543	651.240536	273.627755	-529.253413	586.021565	242.112327	-483.983333	313.215362	153.991284	-552.970142	321.880320	100.467178	-521.695559	294.711507	114.262765	-555.988709	215.410302	112.043389	-667.474829	116.514508	47.522454	-759.176380	79.421277	65.107868	-541.413947	54.087904	105.850024	-533.636369	55.785260	59.103907	-501.700366	615.801363	773.429236	-440.583668	613.762948	795.649954	-420.726416	642.919216	798.316688	-383.600654	551.083613	779.789695	-292.342580	505.970030	773.860777	-270.298905	345.591946	639.815232	-366.036137	294.894226	616.726009	-321.919833	285.632251	611.111654	-307.999173	257.717426	558.464446	-392.987570	191.233504	518.920039	-444.284826	199.878065	437.108150	-233.618237	127.621334	482.051004	-251.041584	112.350189	516.366103	-313.563274	85.298621	537.118019	
319	1.590000	-249.953982	1420.362109	726.841376	-381.911563	1420.463288	579.426107	-396.676744	1406.750584	707.124235	-464.517260	1309.154101	632.526344	-673.861667	1021.238549	628.365012	-381.492879	1164.274048	638.299847	-383.921057	1259.219312	515.719775	-407.640368	1118.840242	382.472555	-368.766299	1092.328652	388.337978	-398.436759	1056.721441	350.501485	-390.967776	941.302336	316.147533	-411.818142	899.509492	378.344734	-212.303623	1032.756121	469.034879	-168.526982	980.968020	439.191757	-160.153547	1083.351721	452.829944	-413.805319	1242.952407	797.819973	-564.113616	1180.556033	889.008799	-576.886343	1133.873259	878.711436	-623.625305	1155.721097	910.629144	-748.897061	1104.520357	933.794632	-781.192331	1125.300528	871.727345	-777.564899	858.209106	855.536754	-832.091046	860.553424	907.499953	-754.532278	791.082770	889.997184	-537.792312	798.119721	697.078244	-710.962531	915.025900	616.057890	-712.132249	891.659435	580.969866	-714.798040	876.567206	638.188730	-546.433701	697.580058	305.317850	-497.177799	640.457516	266.323573	-451.723433	648.583029	277.543502	-513.169416	586.262063	244.677241	-477.250616	312.140249	153.730177	-546.943868	322.609310	101.254759	-515.973283	294.710865	114.458565	-552.003372	216.187718	112.054217	-665.627154	120.237488	47.899580	-757.844372	85.448826	65.731584	-540.698012	53.675814	105.306407	-533.349901	55.726103	58.529838	-477.403799	617.395044	780.148580	-416.368746	616.113606	802.536213	-396.890786	645.582341	805.213607	-358.462430	554.207825	786.686919	-266.283961	509.761505	781.435120	-231.273936	347.031015	651.495800	-324.225107	290.554874	626.608708	-279.390408	283.569782	622.496057	-262.715979	255.673064	569.998984	-342.836237	183.390324	530.493816	-392.293025	187.658764	447.304663	-179.162017	128.517037	498.569125	-196.390814	112.659425	532.484985	-257.698470	82.359433	552.313407	
